<svg width="24" height="24" xmlns="http://www.w3.org/2000/svg">
 <g>
  <title>background</title>
  <rect x="-1" y="-1" width="3.5" height="3.5" id="canvas_background" fill="none"/>
 </g>

 <g>
  <title>Layer 1</title>
  <g id="svg_1">
   <g id="svg_2">
    <path clip-rule="evenodd" d="m19,14l-1.909,0c0.011,0 -0.009,0 -0.091,0l0,-4l2,0c2.762,0 5,-2.238 5,-5s-2.238,-5 -5,-5s-5,2.238 -5,5l0,1.91c0,-0.011 0,0.009 0,0.09l-4,0l0,-2c0,-2.762 -2.238,-5 -5,-5s-5,2.238 -5,5s2.238,5 5,5l1.91,0c-0.011,0 0.009,0 0.09,0l0,4l-2,0c-2.762,0 -5,2.238 -5,5s2.238,5 5,5s5,-2.238 5,-5l0,-1.91c0,0.012 0,-0.008 0,-0.09l4,0l0,2c0,2.762 2.238,5 5,5s5,-2.238 5,-5s-2.238,-5 -5,-5zm-2,-9c0,-1.104 0.896,-2 2,-2s2,0.896 2,2s-0.896,2 -2,2c-0.521,0 -2,0 -2,0s0,-1.416 0,-2zm-10,14c0,1.104 -0.896,2 -2,2s-2,-0.896 -2,-2s0.896,-2 2,-2c0.521,0 2,0 2,0s0,1.416 0,2zm0,-12c0,0 -1.416,0 -2,0c-1.104,0 -2,-0.896 -2,-2s0.896,-2 2,-2s2,0.896 2,2c0,0.521 0,2 0,2zm7,7l-4,0l0,-4l4,0l0,4zm5,7c-1.104,0 -2,-0.896 -2,-2c0,-0.521 0,-2 0,-2s1.416,0 2,0c1.104,0 2,0.896 2,2s-0.896,2 -2,2z" fill="#444444" fill-rule="evenodd" id="svg_3"/>
   </g>
  </g>
 </g>
</svg>